<mxfile host="app.diagrams.net" modified="2024-04-09T19:33:44.914Z" agent="Mozilla/5.0 (Windows NT 10.0; Win64; x64) AppleWebKit/537.36 (KHTML, like Gecko) Chrome/112.0.0.0 Safari/537.36" etag="1IEf5WnPFX5wEQ8Tyl7_" version="24.2.3" type="device">
  <diagram name="Página-1" id="Ltyvjm6lgNGwT9fpJ81k">
    <mxGraphModel dx="693" dy="1571" grid="1" gridSize="10" guides="1" tooltips="1" connect="1" arrows="1" fold="1" page="1" pageScale="1" pageWidth="2339" pageHeight="3300" math="0" shadow="0">
      <root>
        <mxCell id="0" />
        <mxCell id="1" parent="0" />
        <mxCell id="RpxCueIe4JW99A29Kckk-2" style="edgeStyle=orthogonalEdgeStyle;rounded=0;orthogonalLoop=1;jettySize=auto;html=1;exitX=0.5;exitY=0;exitDx=0;exitDy=0;endArrow=none;endFill=0;entryX=0.5;entryY=1;entryDx=0;entryDy=0;" parent="1" source="lkaVUYFyqbYypGXXoBvJ-1" target="RpxCueIe4JW99A29Kckk-4" edge="1">
          <mxGeometry relative="1" as="geometry">
            <mxPoint x="110" y="141" as="targetPoint" />
          </mxGeometry>
        </mxCell>
        <mxCell id="lkaVUYFyqbYypGXXoBvJ-1" value="&lt;font style=&quot;font-size: 24px;&quot;&gt;Usuário&lt;/font&gt;" style="rounded=0;whiteSpace=wrap;html=1;" parent="1" vertex="1">
          <mxGeometry x="50" y="120" width="120" height="60" as="geometry" />
        </mxCell>
        <mxCell id="lkaVUYFyqbYypGXXoBvJ-2" value="&lt;font style=&quot;font-size: 24px;&quot;&gt;Livro&lt;/font&gt;" style="rounded=0;whiteSpace=wrap;html=1;" parent="1" vertex="1">
          <mxGeometry x="640" y="140" width="120" height="60" as="geometry" />
        </mxCell>
        <mxCell id="lkaVUYFyqbYypGXXoBvJ-3" value="&lt;font style=&quot;font-size: 24px;&quot;&gt;Empregado&lt;/font&gt;" style="rounded=0;whiteSpace=wrap;html=1;" parent="1" vertex="1">
          <mxGeometry x="337" y="320" width="140" height="70" as="geometry" />
        </mxCell>
        <mxCell id="RpxCueIe4JW99A29Kckk-3" value="&lt;font style=&quot;font-size: 24px;&quot;&gt;Nome&lt;/font&gt;" style="ellipse;whiteSpace=wrap;html=1;" parent="1" vertex="1">
          <mxGeometry x="50" y="205" width="120" height="80" as="geometry" />
        </mxCell>
        <mxCell id="RpxCueIe4JW99A29Kckk-4" value="&lt;font style=&quot;font-size: 24px;&quot;&gt;ID&lt;/font&gt;" style="ellipse;whiteSpace=wrap;html=1;" parent="1" vertex="1">
          <mxGeometry x="50" y="10" width="120" height="80" as="geometry" />
        </mxCell>
        <mxCell id="RpxCueIe4JW99A29Kckk-5" style="edgeStyle=orthogonalEdgeStyle;rounded=0;orthogonalLoop=1;jettySize=auto;html=1;exitX=0.5;exitY=1;exitDx=0;exitDy=0;endArrow=none;endFill=0;entryX=0.5;entryY=0;entryDx=0;entryDy=0;" parent="1" source="lkaVUYFyqbYypGXXoBvJ-1" target="RpxCueIe4JW99A29Kckk-3" edge="1">
          <mxGeometry relative="1" as="geometry">
            <mxPoint x="110" y="361" as="targetPoint" />
            <mxPoint x="109.5" y="281" as="sourcePoint" />
          </mxGeometry>
        </mxCell>
        <mxCell id="RpxCueIe4JW99A29Kckk-6" style="edgeStyle=orthogonalEdgeStyle;rounded=0;orthogonalLoop=1;jettySize=auto;html=1;exitX=0.992;exitY=0.633;exitDx=0;exitDy=0;endArrow=none;endFill=0;entryX=0;entryY=0.5;entryDx=0;entryDy=0;exitPerimeter=0;" parent="1" source="lkaVUYFyqbYypGXXoBvJ-1" target="RpxCueIe4JW99A29Kckk-7" edge="1">
          <mxGeometry relative="1" as="geometry">
            <mxPoint x="280" y="251" as="targetPoint" />
            <mxPoint x="170" y="250.5" as="sourcePoint" />
          </mxGeometry>
        </mxCell>
        <mxCell id="RpxCueIe4JW99A29Kckk-7" value="&lt;font style=&quot;font-size: 24px;&quot;&gt;Endereço&lt;/font&gt;" style="ellipse;whiteSpace=wrap;html=1;" parent="1" vertex="1">
          <mxGeometry x="212" y="118" width="120" height="80" as="geometry" />
        </mxCell>
        <mxCell id="RpxCueIe4JW99A29Kckk-8" style="edgeStyle=orthogonalEdgeStyle;rounded=0;orthogonalLoop=1;jettySize=auto;html=1;endArrow=none;endFill=0;" parent="1" source="lkaVUYFyqbYypGXXoBvJ-2" edge="1">
          <mxGeometry relative="1" as="geometry">
            <mxPoint x="700" y="100" as="targetPoint" />
            <mxPoint x="371" y="556.5" as="sourcePoint" />
            <Array as="points">
              <mxPoint x="700" y="50" />
            </Array>
          </mxGeometry>
        </mxCell>
        <mxCell id="RpxCueIe4JW99A29Kckk-9" value="&lt;font style=&quot;font-size: 24px;&quot;&gt;Editora&lt;/font&gt;" style="ellipse;whiteSpace=wrap;html=1;" parent="1" vertex="1">
          <mxGeometry x="640" y="25" width="120" height="80" as="geometry" />
        </mxCell>
        <mxCell id="RpxCueIe4JW99A29Kckk-10" style="edgeStyle=orthogonalEdgeStyle;rounded=0;orthogonalLoop=1;jettySize=auto;html=1;endArrow=none;endFill=0;exitX=0;exitY=0.5;exitDx=0;exitDy=0;" parent="1" source="lkaVUYFyqbYypGXXoBvJ-2" target="RpxCueIe4JW99A29Kckk-11" edge="1">
          <mxGeometry relative="1" as="geometry">
            <mxPoint x="430.5" y="430.5" as="targetPoint" />
            <mxPoint x="430.5" y="527" as="sourcePoint" />
          </mxGeometry>
        </mxCell>
        <mxCell id="RpxCueIe4JW99A29Kckk-11" value="&lt;font style=&quot;font-size: 24px;&quot;&gt;Gênero&lt;/font&gt;" style="ellipse;whiteSpace=wrap;html=1;" parent="1" vertex="1">
          <mxGeometry x="490" y="130" width="120" height="80" as="geometry" />
        </mxCell>
        <mxCell id="RpxCueIe4JW99A29Kckk-13" value="&lt;font style=&quot;font-size: 24px;&quot;&gt;Paginação&lt;/font&gt;" style="ellipse;whiteSpace=wrap;html=1;" parent="1" vertex="1">
          <mxGeometry x="640" y="230" width="120" height="80" as="geometry" />
        </mxCell>
        <mxCell id="RpxCueIe4JW99A29Kckk-14" value="" style="endArrow=none;html=1;rounded=0;entryX=0.5;entryY=0;entryDx=0;entryDy=0;exitX=0.5;exitY=1;exitDx=0;exitDy=0;" parent="1" source="lkaVUYFyqbYypGXXoBvJ-2" target="RpxCueIe4JW99A29Kckk-13" edge="1">
          <mxGeometry width="50" height="50" relative="1" as="geometry">
            <mxPoint x="390" y="370" as="sourcePoint" />
            <mxPoint x="440" y="320" as="targetPoint" />
          </mxGeometry>
        </mxCell>
        <mxCell id="RpxCueIe4JW99A29Kckk-16" value="" style="endArrow=none;html=1;rounded=0;exitX=0;exitY=0.5;exitDx=0;exitDy=0;" parent="1" source="lkaVUYFyqbYypGXXoBvJ-3" edge="1">
          <mxGeometry width="50" height="50" relative="1" as="geometry">
            <mxPoint x="440" y="670" as="sourcePoint" />
            <mxPoint x="230" y="355" as="targetPoint" />
          </mxGeometry>
        </mxCell>
        <mxCell id="RpxCueIe4JW99A29Kckk-18" value="&lt;font style=&quot;font-size: 24px;&quot;&gt;Cargo&lt;/font&gt;" style="ellipse;whiteSpace=wrap;html=1;" parent="1" vertex="1">
          <mxGeometry x="170" y="315" width="120" height="80" as="geometry" />
        </mxCell>
        <mxCell id="RpxCueIe4JW99A29Kckk-22" value="" style="endArrow=none;html=1;rounded=0;entryX=0;entryY=0.5;entryDx=0;entryDy=0;exitX=1;exitY=0.5;exitDx=0;exitDy=0;" parent="1" source="lkaVUYFyqbYypGXXoBvJ-3" edge="1">
          <mxGeometry width="50" height="50" relative="1" as="geometry">
            <mxPoint x="390" y="370" as="sourcePoint" />
            <mxPoint x="530" y="355" as="targetPoint" />
          </mxGeometry>
        </mxCell>
        <mxCell id="RpxCueIe4JW99A29Kckk-23" value="&lt;font style=&quot;font-size: 24px;&quot;&gt;Endereço&lt;/font&gt;" style="ellipse;whiteSpace=wrap;html=1;" parent="1" vertex="1">
          <mxGeometry x="530" y="315" width="120" height="80" as="geometry" />
        </mxCell>
        <mxCell id="RpxCueIe4JW99A29Kckk-24" value="" style="endArrow=none;html=1;rounded=0;entryX=0.5;entryY=1;entryDx=0;entryDy=0;" parent="1" target="lkaVUYFyqbYypGXXoBvJ-3" edge="1">
          <mxGeometry width="50" height="50" relative="1" as="geometry">
            <mxPoint x="407" y="450" as="sourcePoint" />
            <mxPoint x="440" y="310" as="targetPoint" />
          </mxGeometry>
        </mxCell>
        <mxCell id="RpxCueIe4JW99A29Kckk-25" value="&lt;font style=&quot;font-size: 24px;&quot;&gt;Vale Refeição&lt;/font&gt;" style="ellipse;whiteSpace=wrap;html=1;" parent="1" vertex="1">
          <mxGeometry x="347" y="423" width="120" height="80" as="geometry" />
        </mxCell>
        <mxCell id="RpxCueIe4JW99A29Kckk-26" value="" style="endArrow=none;html=1;rounded=0;" parent="1" edge="1">
          <mxGeometry width="50" height="50" relative="1" as="geometry">
            <mxPoint x="7" y="560" as="sourcePoint" />
            <mxPoint x="880" y="560" as="targetPoint" />
          </mxGeometry>
        </mxCell>
        <mxCell id="RpxCueIe4JW99A29Kckk-27" value="&lt;font style=&quot;font-size: 24px;&quot;&gt;Aluno&lt;/font&gt;" style="rounded=0;whiteSpace=wrap;html=1;" parent="1" vertex="1">
          <mxGeometry x="341" y="680" width="120" height="60" as="geometry" />
        </mxCell>
        <mxCell id="RpxCueIe4JW99A29Kckk-28" value="&lt;font style=&quot;font-size: 24px;&quot;&gt;Professor&lt;/font&gt;" style="rounded=0;whiteSpace=wrap;html=1;" parent="1" vertex="1">
          <mxGeometry x="100" y="937" width="120" height="60" as="geometry" />
        </mxCell>
        <mxCell id="RpxCueIe4JW99A29Kckk-29" value="&lt;font style=&quot;font-size: 24px;&quot;&gt;Material&lt;/font&gt;" style="rounded=0;whiteSpace=wrap;html=1;" parent="1" vertex="1">
          <mxGeometry x="570" y="938" width="120" height="60" as="geometry" />
        </mxCell>
        <mxCell id="RpxCueIe4JW99A29Kckk-30" value="" style="endArrow=none;html=1;rounded=0;exitX=1;exitY=0;exitDx=0;exitDy=0;entryX=0;entryY=0.5;entryDx=0;entryDy=0;" parent="1" source="RpxCueIe4JW99A29Kckk-28" target="RpxCueIe4JW99A29Kckk-31" edge="1">
          <mxGeometry width="50" height="50" relative="1" as="geometry">
            <mxPoint x="170" y="907" as="sourcePoint" />
            <mxPoint x="360" y="907" as="targetPoint" />
            <Array as="points" />
          </mxGeometry>
        </mxCell>
        <mxCell id="RpxCueIe4JW99A29Kckk-31" value="&lt;font style=&quot;font-size: 24px;&quot;&gt;Disciplina&lt;/font&gt;" style="rhombus;whiteSpace=wrap;html=1;" parent="1" vertex="1">
          <mxGeometry x="324.5" y="840" width="153" height="110" as="geometry" />
        </mxCell>
        <mxCell id="RpxCueIe4JW99A29Kckk-34" value="" style="endArrow=none;html=1;rounded=0;exitX=1;exitY=0.5;exitDx=0;exitDy=0;" parent="1" source="RpxCueIe4JW99A29Kckk-31" edge="1">
          <mxGeometry width="50" height="50" relative="1" as="geometry">
            <mxPoint x="509" y="919.5" as="sourcePoint" />
            <mxPoint x="570" y="937" as="targetPoint" />
            <Array as="points" />
          </mxGeometry>
        </mxCell>
        <mxCell id="RpxCueIe4JW99A29Kckk-35" value="" style="endArrow=none;html=1;rounded=0;exitX=0.5;exitY=1;exitDx=0;exitDy=0;entryX=0.5;entryY=0;entryDx=0;entryDy=0;" parent="1" source="RpxCueIe4JW99A29Kckk-27" target="RpxCueIe4JW99A29Kckk-31" edge="1">
          <mxGeometry width="50" height="50" relative="1" as="geometry">
            <mxPoint x="438" y="797" as="sourcePoint" />
            <mxPoint x="530" y="832" as="targetPoint" />
            <Array as="points" />
          </mxGeometry>
        </mxCell>
        <mxCell id="RpxCueIe4JW99A29Kckk-36" value="&lt;font style=&quot;font-size: 24px;&quot;&gt;Matrícula&lt;/font&gt;" style="ellipse;whiteSpace=wrap;html=1;" parent="1" vertex="1">
          <mxGeometry x="544" y="670" width="120" height="80" as="geometry" />
        </mxCell>
        <mxCell id="RpxCueIe4JW99A29Kckk-37" value="" style="endArrow=none;html=1;rounded=0;entryX=0;entryY=0.5;entryDx=0;entryDy=0;exitX=1;exitY=0.5;exitDx=0;exitDy=0;" parent="1" source="RpxCueIe4JW99A29Kckk-27" target="RpxCueIe4JW99A29Kckk-36" edge="1">
          <mxGeometry width="50" height="50" relative="1" as="geometry">
            <mxPoint x="530" y="710" as="sourcePoint" />
            <mxPoint x="580" y="660" as="targetPoint" />
          </mxGeometry>
        </mxCell>
        <mxCell id="RpxCueIe4JW99A29Kckk-38" value="&lt;font style=&quot;font-size: 24px;&quot;&gt;Quantidade alunos&lt;/font&gt;" style="ellipse;whiteSpace=wrap;html=1;" parent="1" vertex="1">
          <mxGeometry x="120" y="660" width="150" height="100" as="geometry" />
        </mxCell>
        <mxCell id="RpxCueIe4JW99A29Kckk-39" value="" style="endArrow=none;html=1;rounded=0;entryX=0;entryY=0.5;entryDx=0;entryDy=0;exitX=1;exitY=0.5;exitDx=0;exitDy=0;" parent="1" source="RpxCueIe4JW99A29Kckk-38" target="RpxCueIe4JW99A29Kckk-27" edge="1">
          <mxGeometry width="50" height="50" relative="1" as="geometry">
            <mxPoint x="252" y="709.5" as="sourcePoint" />
            <mxPoint x="335" y="709.5" as="targetPoint" />
          </mxGeometry>
        </mxCell>
        <mxCell id="RpxCueIe4JW99A29Kckk-41" value="&lt;font style=&quot;font-size: 24px;&quot;&gt;Quantidade professor&lt;/font&gt;" style="ellipse;whiteSpace=wrap;html=1;" parent="1" vertex="1">
          <mxGeometry x="90" y="1040" width="140" height="100" as="geometry" />
        </mxCell>
        <mxCell id="RpxCueIe4JW99A29Kckk-42" value="" style="endArrow=none;html=1;rounded=0;exitX=0.5;exitY=0;exitDx=0;exitDy=0;entryX=0.5;entryY=1;entryDx=0;entryDy=0;" parent="1" source="RpxCueIe4JW99A29Kckk-41" target="RpxCueIe4JW99A29Kckk-28" edge="1">
          <mxGeometry width="50" height="50" relative="1" as="geometry">
            <mxPoint x="230" y="947" as="sourcePoint" />
            <mxPoint x="335" y="905" as="targetPoint" />
            <Array as="points" />
          </mxGeometry>
        </mxCell>
        <mxCell id="RpxCueIe4JW99A29Kckk-43" value="&lt;span style=&quot;font-size: 24px;&quot;&gt;Preço&lt;/span&gt;" style="ellipse;whiteSpace=wrap;html=1;" parent="1" vertex="1">
          <mxGeometry x="570" y="1050" width="120" height="80" as="geometry" />
        </mxCell>
        <mxCell id="RpxCueIe4JW99A29Kckk-44" value="" style="endArrow=none;html=1;rounded=0;exitX=0.5;exitY=0;exitDx=0;exitDy=0;entryX=0.5;entryY=1;entryDx=0;entryDy=0;" parent="1" source="RpxCueIe4JW99A29Kckk-43" target="RpxCueIe4JW99A29Kckk-29" edge="1">
          <mxGeometry width="50" height="50" relative="1" as="geometry">
            <mxPoint x="170" y="1050" as="sourcePoint" />
            <mxPoint x="170" y="1007" as="targetPoint" />
            <Array as="points" />
          </mxGeometry>
        </mxCell>
        <mxCell id="F_fClYowd6y0dolUyRbf-1" value="" style="endArrow=none;html=1;rounded=0;" edge="1" parent="1">
          <mxGeometry width="50" height="50" relative="1" as="geometry">
            <mxPoint x="880" y="560" as="sourcePoint" />
            <mxPoint x="880" as="targetPoint" />
          </mxGeometry>
        </mxCell>
        <mxCell id="F_fClYowd6y0dolUyRbf-2" value="&lt;font style=&quot;font-size: 24px;&quot;&gt;Exercício 1&lt;/font&gt;" style="rounded=1;whiteSpace=wrap;html=1;" vertex="1" parent="1">
          <mxGeometry x="740" y="490" width="140" height="70" as="geometry" />
        </mxCell>
        <mxCell id="F_fClYowd6y0dolUyRbf-3" value="" style="endArrow=none;html=1;rounded=0;entryX=1;entryY=1;entryDx=0;entryDy=0;" edge="1" parent="1" target="F_fClYowd6y0dolUyRbf-2">
          <mxGeometry width="50" height="50" relative="1" as="geometry">
            <mxPoint x="880" y="1210" as="sourcePoint" />
            <mxPoint x="880" y="580" as="targetPoint" />
          </mxGeometry>
        </mxCell>
        <mxCell id="F_fClYowd6y0dolUyRbf-4" value="" style="endArrow=none;html=1;rounded=0;" edge="1" parent="1">
          <mxGeometry width="50" height="50" relative="1" as="geometry">
            <mxPoint x="7" y="1210" as="sourcePoint" />
            <mxPoint x="880" y="1210" as="targetPoint" />
          </mxGeometry>
        </mxCell>
        <mxCell id="F_fClYowd6y0dolUyRbf-6" value="&lt;font style=&quot;font-size: 24px;&quot;&gt;Exercício 2&lt;/font&gt;" style="rounded=1;whiteSpace=wrap;html=1;" vertex="1" parent="1">
          <mxGeometry x="740" y="1140" width="140" height="70" as="geometry" />
        </mxCell>
        <mxCell id="F_fClYowd6y0dolUyRbf-7" value="&lt;font style=&quot;font-size: 24px;&quot;&gt;Produto&lt;/font&gt;" style="rounded=0;whiteSpace=wrap;html=1;" vertex="1" parent="1">
          <mxGeometry x="930" y="35" width="120" height="60" as="geometry" />
        </mxCell>
        <mxCell id="F_fClYowd6y0dolUyRbf-8" value="&lt;font style=&quot;font-size: 24px;&quot;&gt;Cliente&lt;/font&gt;" style="rounded=0;whiteSpace=wrap;html=1;" vertex="1" parent="1">
          <mxGeometry x="1140" y="35" width="120" height="60" as="geometry" />
        </mxCell>
        <mxCell id="F_fClYowd6y0dolUyRbf-9" value="&lt;font style=&quot;font-size: 24px;&quot;&gt;Pedido&lt;/font&gt;" style="rounded=0;whiteSpace=wrap;html=1;" vertex="1" parent="1">
          <mxGeometry x="1350" y="35" width="120" height="60" as="geometry" />
        </mxCell>
        <mxCell id="F_fClYowd6y0dolUyRbf-10" value="&lt;font style=&quot;font-size: 24px;&quot;&gt;Código barra&lt;/font&gt;" style="ellipse;whiteSpace=wrap;html=1;" vertex="1" parent="1">
          <mxGeometry x="930" y="150" width="120" height="80" as="geometry" />
        </mxCell>
        <mxCell id="F_fClYowd6y0dolUyRbf-11" value="" style="endArrow=none;html=1;rounded=0;entryX=0.5;entryY=1;entryDx=0;entryDy=0;exitX=0.5;exitY=0;exitDx=0;exitDy=0;" edge="1" parent="1" source="F_fClYowd6y0dolUyRbf-10" target="F_fClYowd6y0dolUyRbf-7">
          <mxGeometry width="50" height="50" relative="1" as="geometry">
            <mxPoint x="1160" y="560" as="sourcePoint" />
            <mxPoint x="1210" y="510" as="targetPoint" />
          </mxGeometry>
        </mxCell>
        <mxCell id="F_fClYowd6y0dolUyRbf-12" value="&lt;font style=&quot;font-size: 24px;&quot;&gt;ID&lt;/font&gt;" style="ellipse;whiteSpace=wrap;html=1;" vertex="1" parent="1">
          <mxGeometry x="1140" y="150" width="120" height="80" as="geometry" />
        </mxCell>
        <mxCell id="F_fClYowd6y0dolUyRbf-13" value="" style="endArrow=none;html=1;rounded=0;entryX=0.5;entryY=1;entryDx=0;entryDy=0;exitX=0.5;exitY=0;exitDx=0;exitDy=0;" edge="1" parent="1" source="F_fClYowd6y0dolUyRbf-12" target="F_fClYowd6y0dolUyRbf-8">
          <mxGeometry width="50" height="50" relative="1" as="geometry">
            <mxPoint x="1000" y="160" as="sourcePoint" />
            <mxPoint x="1000" y="105" as="targetPoint" />
          </mxGeometry>
        </mxCell>
        <mxCell id="F_fClYowd6y0dolUyRbf-15" value="&lt;font style=&quot;font-size: 24px;&quot;&gt;Código pedido&lt;/font&gt;" style="ellipse;whiteSpace=wrap;html=1;" vertex="1" parent="1">
          <mxGeometry x="1350" y="150" width="120" height="80" as="geometry" />
        </mxCell>
        <mxCell id="F_fClYowd6y0dolUyRbf-16" value="" style="endArrow=none;html=1;rounded=0;entryX=0.5;entryY=1;entryDx=0;entryDy=0;exitX=0.5;exitY=0;exitDx=0;exitDy=0;" edge="1" parent="1" source="F_fClYowd6y0dolUyRbf-15" target="F_fClYowd6y0dolUyRbf-9">
          <mxGeometry width="50" height="50" relative="1" as="geometry">
            <mxPoint x="1160" y="560" as="sourcePoint" />
            <mxPoint x="1210" y="510" as="targetPoint" />
          </mxGeometry>
        </mxCell>
        <mxCell id="F_fClYowd6y0dolUyRbf-17" value="&lt;font style=&quot;font-size: 24px;&quot;&gt;Escolhi esses atributos porque eles são a chave para encontrar eles.&lt;/font&gt;" style="rounded=1;whiteSpace=wrap;html=1;" vertex="1" parent="1">
          <mxGeometry x="1090" y="340" width="200" height="160" as="geometry" />
        </mxCell>
        <mxCell id="F_fClYowd6y0dolUyRbf-18" value="" style="endArrow=none;html=1;rounded=0;" edge="1" parent="1">
          <mxGeometry width="50" height="50" relative="1" as="geometry">
            <mxPoint x="880" y="560" as="sourcePoint" />
            <mxPoint x="1520" y="560" as="targetPoint" />
          </mxGeometry>
        </mxCell>
        <mxCell id="F_fClYowd6y0dolUyRbf-19" value="" style="endArrow=none;html=1;rounded=0;" edge="1" parent="1">
          <mxGeometry width="50" height="50" relative="1" as="geometry">
            <mxPoint x="1521" as="sourcePoint" />
            <mxPoint x="1520" y="560" as="targetPoint" />
          </mxGeometry>
        </mxCell>
        <mxCell id="F_fClYowd6y0dolUyRbf-20" value="&lt;font style=&quot;font-size: 24px;&quot;&gt;Exercício 3&lt;/font&gt;" style="rounded=1;whiteSpace=wrap;html=1;" vertex="1" parent="1">
          <mxGeometry x="1380" y="490" width="140" height="70" as="geometry" />
        </mxCell>
        <mxCell id="F_fClYowd6y0dolUyRbf-21" value="" style="endArrow=none;html=1;rounded=0;" edge="1" parent="1">
          <mxGeometry width="50" height="50" relative="1" as="geometry">
            <mxPoint x="880" y="1209" as="sourcePoint" />
            <mxPoint x="1753" y="1209" as="targetPoint" />
          </mxGeometry>
        </mxCell>
        <mxCell id="F_fClYowd6y0dolUyRbf-22" value="" style="endArrow=none;html=1;rounded=0;" edge="1" parent="1">
          <mxGeometry width="50" height="50" relative="1" as="geometry">
            <mxPoint x="1520" y="560" as="sourcePoint" />
            <mxPoint x="1520" y="1210" as="targetPoint" />
          </mxGeometry>
        </mxCell>
        <mxCell id="F_fClYowd6y0dolUyRbf-23" value="&lt;font style=&quot;font-size: 24px;&quot;&gt;Exercício 4&lt;/font&gt;" style="rounded=1;whiteSpace=wrap;html=1;" vertex="1" parent="1">
          <mxGeometry x="1380" y="1140" width="140" height="70" as="geometry" />
        </mxCell>
        <mxCell id="F_fClYowd6y0dolUyRbf-24" value="&lt;font style=&quot;font-size: 24px;&quot;&gt;Evento&lt;/font&gt;" style="rounded=0;whiteSpace=wrap;html=1;" vertex="1" parent="1">
          <mxGeometry x="1130" y="610" width="120" height="60" as="geometry" />
        </mxCell>
        <mxCell id="F_fClYowd6y0dolUyRbf-25" value="" style="endArrow=none;html=1;rounded=0;" edge="1" parent="1">
          <mxGeometry width="50" height="50" relative="1" as="geometry">
            <mxPoint x="1040" y="820" as="sourcePoint" />
            <mxPoint x="1040" y="640" as="targetPoint" />
          </mxGeometry>
        </mxCell>
        <mxCell id="F_fClYowd6y0dolUyRbf-26" value="" style="endArrow=none;html=1;rounded=0;entryX=0;entryY=0.5;entryDx=0;entryDy=0;" edge="1" parent="1" target="F_fClYowd6y0dolUyRbf-24">
          <mxGeometry width="50" height="50" relative="1" as="geometry">
            <mxPoint x="1040" y="640" as="sourcePoint" />
            <mxPoint x="1050" y="650" as="targetPoint" />
          </mxGeometry>
        </mxCell>
        <mxCell id="F_fClYowd6y0dolUyRbf-27" value="&lt;font style=&quot;font-size: 24px;&quot;&gt;Endereço do Evento&lt;/font&gt;" style="ellipse;whiteSpace=wrap;html=1;" vertex="1" parent="1">
          <mxGeometry x="975" y="820" width="130" height="90" as="geometry" />
        </mxCell>
        <mxCell id="F_fClYowd6y0dolUyRbf-28" value="" style="endArrow=none;html=1;rounded=0;" edge="1" parent="1">
          <mxGeometry width="50" height="50" relative="1" as="geometry">
            <mxPoint x="1340" y="820" as="sourcePoint" />
            <mxPoint x="1340" y="640" as="targetPoint" />
          </mxGeometry>
        </mxCell>
        <mxCell id="F_fClYowd6y0dolUyRbf-29" value="" style="endArrow=none;html=1;rounded=0;entryX=0;entryY=0.5;entryDx=0;entryDy=0;" edge="1" parent="1">
          <mxGeometry width="50" height="50" relative="1" as="geometry">
            <mxPoint x="1250" y="640" as="sourcePoint" />
            <mxPoint x="1340" y="640" as="targetPoint" />
          </mxGeometry>
        </mxCell>
        <mxCell id="F_fClYowd6y0dolUyRbf-30" value="&lt;font style=&quot;font-size: 24px;&quot;&gt;Pessoas no Evento&lt;/font&gt;" style="ellipse;whiteSpace=wrap;html=1;" vertex="1" parent="1">
          <mxGeometry x="1264" y="820" width="150" height="90" as="geometry" />
        </mxCell>
        <mxCell id="F_fClYowd6y0dolUyRbf-31" value="&lt;font style=&quot;font-size: 24px;&quot;&gt;Um endereço de evento pode ser separado em rua, número etc. E pessoas no evento tanto pode ser uma pessoa, ou mais.&lt;/font&gt;" style="rounded=1;whiteSpace=wrap;html=1;" vertex="1" parent="1">
          <mxGeometry x="1045" y="960" width="290" height="200" as="geometry" />
        </mxCell>
        <mxCell id="F_fClYowd6y0dolUyRbf-32" value="" style="endArrow=none;html=1;rounded=0;" edge="1" parent="1">
          <mxGeometry width="50" height="50" relative="1" as="geometry">
            <mxPoint x="1520" y="559" as="sourcePoint" />
            <mxPoint x="2160" y="559" as="targetPoint" />
          </mxGeometry>
        </mxCell>
        <mxCell id="F_fClYowd6y0dolUyRbf-33" value="&lt;font style=&quot;font-size: 24px;&quot;&gt;Exercício 5&lt;/font&gt;" style="rounded=1;whiteSpace=wrap;html=1;" vertex="1" parent="1">
          <mxGeometry x="2020" y="490" width="140" height="70" as="geometry" />
        </mxCell>
        <mxCell id="F_fClYowd6y0dolUyRbf-34" value="" style="endArrow=none;html=1;rounded=0;entryX=1;entryY=1;entryDx=0;entryDy=0;" edge="1" parent="1">
          <mxGeometry width="50" height="50" relative="1" as="geometry">
            <mxPoint x="2161" as="sourcePoint" />
            <mxPoint x="2159" y="560" as="targetPoint" />
          </mxGeometry>
        </mxCell>
        <mxCell id="F_fClYowd6y0dolUyRbf-35" value="&lt;font style=&quot;font-size: 24px;&quot;&gt;Cadastro&lt;/font&gt;" style="rounded=0;whiteSpace=wrap;html=1;" vertex="1" parent="1">
          <mxGeometry x="1610" y="45" width="120" height="60" as="geometry" />
        </mxCell>
        <mxCell id="F_fClYowd6y0dolUyRbf-36" value="" style="endArrow=none;html=1;rounded=0;entryX=0.5;entryY=1;entryDx=0;entryDy=0;" edge="1" parent="1" target="F_fClYowd6y0dolUyRbf-35">
          <mxGeometry width="50" height="50" relative="1" as="geometry">
            <mxPoint x="1670" y="180" as="sourcePoint" />
            <mxPoint x="1850" y="560" as="targetPoint" />
          </mxGeometry>
        </mxCell>
        <mxCell id="F_fClYowd6y0dolUyRbf-37" value="&lt;font style=&quot;font-size: 24px;&quot;&gt;ID (chave primária)&lt;/font&gt;" style="ellipse;whiteSpace=wrap;html=1;" vertex="1" parent="1">
          <mxGeometry x="1610" y="180" width="130" height="100" as="geometry" />
        </mxCell>
        <mxCell id="F_fClYowd6y0dolUyRbf-38" value="" style="endArrow=none;html=1;rounded=0;entryX=1;entryY=0.5;entryDx=0;entryDy=0;" edge="1" parent="1" target="F_fClYowd6y0dolUyRbf-35">
          <mxGeometry width="50" height="50" relative="1" as="geometry">
            <mxPoint x="1850" y="75" as="sourcePoint" />
            <mxPoint x="1680" y="115" as="targetPoint" />
          </mxGeometry>
        </mxCell>
        <mxCell id="F_fClYowd6y0dolUyRbf-39" value="&lt;font style=&quot;font-size: 24px;&quot;&gt;Nome&lt;/font&gt;" style="ellipse;whiteSpace=wrap;html=1;" vertex="1" parent="1">
          <mxGeometry x="1810" y="35" width="120" height="80" as="geometry" />
        </mxCell>
        <mxCell id="F_fClYowd6y0dolUyRbf-40" value="&lt;font style=&quot;font-size: 24px;&quot;&gt;Empresas&lt;/font&gt;" style="rounded=0;whiteSpace=wrap;html=1;" vertex="1" parent="1">
          <mxGeometry x="1980" y="160" width="120" height="60" as="geometry" />
        </mxCell>
        <mxCell id="F_fClYowd6y0dolUyRbf-41" value="" style="endArrow=none;html=1;rounded=0;exitX=0.5;exitY=0;exitDx=0;exitDy=0;" edge="1" parent="1" source="F_fClYowd6y0dolUyRbf-40">
          <mxGeometry width="50" height="50" relative="1" as="geometry">
            <mxPoint x="1860" y="85" as="sourcePoint" />
            <mxPoint x="2040" y="100" as="targetPoint" />
          </mxGeometry>
        </mxCell>
        <mxCell id="F_fClYowd6y0dolUyRbf-42" value="&lt;font style=&quot;font-size: 24px;&quot;&gt;CNPJ (chave primária)&lt;/font&gt;" style="ellipse;whiteSpace=wrap;html=1;" vertex="1" parent="1">
          <mxGeometry x="1957" y="10" width="165" height="102.5" as="geometry" />
        </mxCell>
        <mxCell id="F_fClYowd6y0dolUyRbf-43" value="&lt;font style=&quot;font-size: 24px;&quot;&gt;Nomes empresas&lt;/font&gt;" style="ellipse;whiteSpace=wrap;html=1;" vertex="1" parent="1">
          <mxGeometry x="1975" y="270" width="130" height="90" as="geometry" />
        </mxCell>
        <mxCell id="F_fClYowd6y0dolUyRbf-45" value="" style="endArrow=none;html=1;rounded=0;entryX=0.5;entryY=1;entryDx=0;entryDy=0;exitX=0.5;exitY=0;exitDx=0;exitDy=0;" edge="1" parent="1" source="F_fClYowd6y0dolUyRbf-43" target="F_fClYowd6y0dolUyRbf-40">
          <mxGeometry width="50" height="50" relative="1" as="geometry">
            <mxPoint x="1800" y="600" as="sourcePoint" />
            <mxPoint x="1850" y="550" as="targetPoint" />
          </mxGeometry>
        </mxCell>
        <mxCell id="F_fClYowd6y0dolUyRbf-46" value="&lt;font style=&quot;font-size: 24px;&quot;&gt;Escolhi esses atributos porque eles são a chave para encontrar eles.&lt;/font&gt;" style="rounded=1;whiteSpace=wrap;html=1;" vertex="1" parent="1">
          <mxGeometry x="1620" y="310" width="200" height="160" as="geometry" />
        </mxCell>
        <mxCell id="F_fClYowd6y0dolUyRbf-47" value="" style="endArrow=none;html=1;rounded=0;" edge="1" parent="1">
          <mxGeometry width="50" height="50" relative="1" as="geometry">
            <mxPoint x="1730" y="1209" as="sourcePoint" />
            <mxPoint x="2603" y="1209" as="targetPoint" />
          </mxGeometry>
        </mxCell>
        <mxCell id="F_fClYowd6y0dolUyRbf-48" value="" style="endArrow=none;html=1;rounded=0;entryX=1;entryY=1;entryDx=0;entryDy=0;" edge="1" parent="1" target="F_fClYowd6y0dolUyRbf-33">
          <mxGeometry width="50" height="50" relative="1" as="geometry">
            <mxPoint x="2161" y="1210" as="sourcePoint" />
            <mxPoint x="2243" y="967.5" as="targetPoint" />
          </mxGeometry>
        </mxCell>
        <mxCell id="F_fClYowd6y0dolUyRbf-49" value="&lt;font style=&quot;font-size: 24px;&quot;&gt;Exercício 6&lt;/font&gt;" style="rounded=1;whiteSpace=wrap;html=1;" vertex="1" parent="1">
          <mxGeometry x="2020" y="1140" width="140" height="70" as="geometry" />
        </mxCell>
        <mxCell id="F_fClYowd6y0dolUyRbf-50" value="&lt;font style=&quot;font-size: 24px;&quot;&gt;Usuário&lt;/font&gt;" style="rounded=0;whiteSpace=wrap;html=1;strokeColor=default;align=center;verticalAlign=middle;fontFamily=Helvetica;fontSize=12;fontColor=default;fillColor=default;" vertex="1" parent="1">
          <mxGeometry x="1600" y="690" width="90" height="40" as="geometry" />
        </mxCell>
        <mxCell id="F_fClYowd6y0dolUyRbf-51" value="" style="endArrow=none;html=1;rounded=0;entryX=0.5;entryY=1;entryDx=0;entryDy=0;" edge="1" parent="1" source="F_fClYowd6y0dolUyRbf-52" target="F_fClYowd6y0dolUyRbf-50">
          <mxGeometry width="50" height="50" relative="1" as="geometry">
            <mxPoint x="1648.25" y="805" as="sourcePoint" />
            <mxPoint x="1648.25" y="730" as="targetPoint" />
          </mxGeometry>
        </mxCell>
        <mxCell id="F_fClYowd6y0dolUyRbf-52" value="&lt;font style=&quot;font-size: 24px;&quot;&gt;Nome (chave primária)&lt;/font&gt;" style="ellipse;whiteSpace=wrap;html=1;" vertex="1" parent="1">
          <mxGeometry x="1561.5" y="780" width="168.5" height="100" as="geometry" />
        </mxCell>
        <mxCell id="F_fClYowd6y0dolUyRbf-53" value="" style="endArrow=none;html=1;rounded=0;entryX=1;entryY=0.5;entryDx=0;entryDy=0;" edge="1" parent="1" target="F_fClYowd6y0dolUyRbf-50">
          <mxGeometry width="50" height="50" relative="1" as="geometry">
            <mxPoint x="1760" y="710" as="sourcePoint" />
            <mxPoint x="1658.25" y="740" as="targetPoint" />
          </mxGeometry>
        </mxCell>
        <mxCell id="F_fClYowd6y0dolUyRbf-54" value="&lt;font style=&quot;font-size: 24px;&quot;&gt;Data de registro&lt;/font&gt;" style="ellipse;whiteSpace=wrap;html=1;" vertex="1" parent="1">
          <mxGeometry x="1740" y="674" width="110" height="76" as="geometry" />
        </mxCell>
        <mxCell id="F_fClYowd6y0dolUyRbf-55" value="" style="endArrow=none;html=1;rounded=0;entryX=0.5;entryY=0;entryDx=0;entryDy=0;" edge="1" parent="1" target="F_fClYowd6y0dolUyRbf-50">
          <mxGeometry width="50" height="50" relative="1" as="geometry">
            <mxPoint x="1645" y="640" as="sourcePoint" />
            <mxPoint x="1700" y="720" as="targetPoint" />
          </mxGeometry>
        </mxCell>
        <mxCell id="F_fClYowd6y0dolUyRbf-57" value="&lt;font style=&quot;font-size: 24px;&quot;&gt;Nº seguidores&lt;/font&gt;" style="ellipse;whiteSpace=wrap;html=1;" vertex="1" parent="1">
          <mxGeometry x="1561.88" y="590" width="166.25" height="60" as="geometry" />
        </mxCell>
        <mxCell id="F_fClYowd6y0dolUyRbf-58" value="&lt;span style=&quot;font-size: 24px;&quot;&gt;Postagem&lt;/span&gt;" style="rounded=0;whiteSpace=wrap;html=1;strokeColor=default;align=center;verticalAlign=middle;fontFamily=Helvetica;fontSize=12;fontColor=default;fillColor=default;" vertex="1" parent="1">
          <mxGeometry x="2020" y="710" width="120" height="40" as="geometry" />
        </mxCell>
        <mxCell id="F_fClYowd6y0dolUyRbf-59" value="" style="endArrow=none;html=1;rounded=0;entryX=0.5;entryY=1;entryDx=0;entryDy=0;exitX=0.5;exitY=0;exitDx=0;exitDy=0;" edge="1" parent="1" source="F_fClYowd6y0dolUyRbf-58" target="F_fClYowd6y0dolUyRbf-60">
          <mxGeometry width="50" height="50" relative="1" as="geometry">
            <mxPoint x="1770" y="720" as="sourcePoint" />
            <mxPoint x="1700" y="720" as="targetPoint" />
          </mxGeometry>
        </mxCell>
        <mxCell id="F_fClYowd6y0dolUyRbf-60" value="&lt;span style=&quot;font-size: 24px;&quot;&gt;Conteúdo&lt;/span&gt;" style="ellipse;whiteSpace=wrap;html=1;" vertex="1" parent="1">
          <mxGeometry x="2013.75" y="590" width="126.25" height="50" as="geometry" />
        </mxCell>
        <mxCell id="F_fClYowd6y0dolUyRbf-61" value="&lt;font style=&quot;font-size: 24px;&quot;&gt;Nº curtidas&lt;/font&gt;" style="ellipse;whiteSpace=wrap;html=1;" vertex="1" parent="1">
          <mxGeometry x="1860" y="710" width="126.25" height="50" as="geometry" />
        </mxCell>
        <mxCell id="F_fClYowd6y0dolUyRbf-62" value="" style="endArrow=none;html=1;rounded=0;entryX=1;entryY=0.5;entryDx=0;entryDy=0;exitX=0;exitY=0.5;exitDx=0;exitDy=0;" edge="1" parent="1" source="F_fClYowd6y0dolUyRbf-58" target="F_fClYowd6y0dolUyRbf-61">
          <mxGeometry width="50" height="50" relative="1" as="geometry">
            <mxPoint x="2090" y="720" as="sourcePoint" />
            <mxPoint x="2087" y="650" as="targetPoint" />
          </mxGeometry>
        </mxCell>
        <mxCell id="F_fClYowd6y0dolUyRbf-64" value="&lt;font style=&quot;font-size: 24px;&quot;&gt;Código da postagem (chave primária)&lt;/font&gt;" style="ellipse;whiteSpace=wrap;html=1;" vertex="1" parent="1">
          <mxGeometry x="1995" y="780" width="163.75" height="150" as="geometry" />
        </mxCell>
        <mxCell id="F_fClYowd6y0dolUyRbf-65" value="" style="endArrow=none;html=1;rounded=0;entryX=0.5;entryY=0;entryDx=0;entryDy=0;exitX=0.5;exitY=1;exitDx=0;exitDy=0;" edge="1" parent="1" source="F_fClYowd6y0dolUyRbf-58" target="F_fClYowd6y0dolUyRbf-64">
          <mxGeometry width="50" height="50" relative="1" as="geometry">
            <mxPoint x="2030" y="740" as="sourcePoint" />
            <mxPoint x="1996" y="745" as="targetPoint" />
          </mxGeometry>
        </mxCell>
        <mxCell id="F_fClYowd6y0dolUyRbf-66" value="&lt;font style=&quot;font-size: 24px;&quot;&gt;Grupo&lt;/font&gt;" style="rounded=0;whiteSpace=wrap;html=1;strokeColor=default;align=center;verticalAlign=middle;fontFamily=Helvetica;fontSize=12;fontColor=default;fillColor=default;" vertex="1" parent="1">
          <mxGeometry x="1800" y="845" width="90" height="40" as="geometry" />
        </mxCell>
      </root>
    </mxGraphModel>
  </diagram>
</mxfile>
